# AST/ASF file generated using VICON BodyLanguage
# -----------------------------------------------
:version 1.10
:name VICON
:units
  mass 1.0
  length 0.45
  angle deg
:documentation
   .ast/.asf automatically generated from VICON data using
   VICON BodyBuilder and BodyLanguage model FoxedUp or BRILLIANT.MOD
:root
   order TX TY TZ RX RY RZ
   axis XYZ
   position 0 0 0  
   orientation 0 0 0 
:bonedata
  begin
     id 1 
     name lhipjoint
     direction 0.710188 -0.616876 0.339259 
     length 2.5669 
     axis 0 0 0  XYZ
  end
  begin
     id 2 
     name lfemur
     direction 0.34202 -0.939693 0  
     length 7.12796  
     axis 0 0 20  XYZ
    dof rx ry rz
    limits (-160.0 20.0)
           (-70.0 70.0)
           (-60.0 70.0)
  end
  begin
     id 3 
     name ltibia
     direction 0.34202 -0.939693 0   
     length 7.58108   
     axis 0 0 20   XYZ
    dof rx
    limits (-10.0 170.0)
  end
  begin
     id 4 
     name lfoot
     direction 0.0669471 -0.183936 0.980656   
     length 2.17365   
     axis -90 7.62852e-016 20   XYZ
    dof rx rz
    limits (-45.0 90.0)
           (-70.0 20.0)
  end
  begin
     id 5 
     name ltoes
     direction 1.53508e-011 -4.21705e-011 1   
     length 1.09427   
     axis -90 7.62852e-016 20   XYZ
    dof rx
    limits (-90.0 20.0)
  end
  begin
     id 6 
     name rhipjoint
     direction -0.700191 -0.625589 0.34405   
     length 2.53115  
     axis 0 0 0  XYZ 
  end
  begin
     id 7 
     name rfemur
     direction -0.34202 -0.939693 0   
     length 7.33006   
     axis 0 0 -20   XYZ
    dof rx ry rz
    limits (-160.0 20.0)
           (-70.0 70.0)
           (-70.0 60.0)
  end
  begin
     id 8 
     name rtibia
     direction -0.34202 -0.939693 0   
     length 7.64926   
     axis 0 0 -20   XYZ
    dof rx
    limits (-10.0 170.0)
 end
 begin
     id 9 
     name rfoot
     direction -0.0688927 -0.189281 0.979503   
     length 2.20493  
     axis -90 -7.62852e-016 -20   XYZ
    dof rx rz
    limits (-45.0 90.0)
           (-20.0 70.0)
  end
  begin
     id 10 
     name rtoes
     direction -1.53567e-011 -4.21933e-011 1   
     length 1.10919   
     axis -90 -7.62852e-016 -20   XYZ
    dof rx
    limits (-90.0 20.0)
  end
  begin
     id 11 
     name lowerback
     direction -0.0167868 0.989873 -0.140959   
     length 2.14596   
     axis 0 0 0   XYZ
    dof rx ry rz
    limits (-20.0 45.0)
           (-30.0 30.0)
           (-30.0 30.0)
  end
  begin
     id 12 
     name upperback
     direction 0.0129109 0.998033 0.0613525   
     length 2.10457   
     axis 0 0 0   XYZ
    dof rx ry rz
    limits (-20.0 45.0)
           (-30.0 30.0)
           (-30.0 30.0)
  end
  begin
     id 13 
     name thorax
     direction 0.0177047 0.991119 0.131797   
     length 2.17652   
     axis 0 0 0   XYZ
    dof rx ry rz
    limits (-20.0 45.0)
           (-30.0 30.0)
           (-30.0 30.0)
  end
  begin
     id 14 
     name lowerneck
     direction -0.0336893 0.997548 0.0613464   
     length 1.8912   
     axis 0 0 0   XYZ
    dof rx ry rz
    limits (-20.0 45.0)
           (-30.0 30.0)
           (-30.0 30.0)
  end
  begin
     id 15 
     name upperneck
     direction 0.0435909 0.997179 -0.0611028   
     length 1.8829   
     axis 0 0 0   XYZ
    dof rx ry rz
    limits (-20.0 45.0)
           (-30.0 30.0)
           (-30.0 30.0)
  end
  begin
     id 16
     name head
     direction 0.0175076 0.999444 -0.0283782  
     length 1.93197  
     axis 0 0 0   XYZ
    dof rx ry rz
    limits (-20.0 45.0)
           (-30.0 30.0)
           (-30.0 30.0)
  end
  begin
     id 17 
     name lclavicle
     direction 0.919164 0.389875 0.0559876  
     length 3.60004  
     axis 0 0 0   XYZ
    dof ry rz
    limits (-20.0 10.0)
           (0.0 20.0)
  end
  begin
     id 18 
     name lhumerus
     direction 1 -4.48958e-011 6.89191e-027   
     length 5.43301   
     axis 180 -30 -90   XYZ
    dof rx ry rz
    limits (-60.0 90.0)
           (-90.0 90.0)
           (-90.0 90.0)
  end
  begin
     id 19
     name lradius
     direction 1 -4.4897e-011 3.24727e-027   
     length 3.15936   
     axis 180 -30 -90   XYZ
    dof rx
    limits (-10.0 170.0)
  end
  begin
     id 20
     name lwrist
     direction 1 -4.4897e-011 9.00228e-027   
     length 1.57968   
     axis -6.29373e-015 90 90   XYZ
    dof ry
    limits (-180.0 0.0)
 end
  begin
     id 21 
     name lhand
     direction 1 -4.48968e-011 1.80042e-026   
     length 0.712827   
     axis -1.14882e-014 90 90   XYZ
    dof rx rz
    limits (-90.0 90.0)
           (-45.0 45.0)
  end
  begin
     id 22 
     name lfingers
     direction 1 -4.49019e-011 3.60267e-026   
     length 0.574699   
     axis -2.29769e-014 90 90   XYZ
    dof rx
    limits (0.0 90.0)
  end
  begin
     id 23
     name lthumb
     direction 0.707107 -6.3498e-011 0.707107   
     length 0.825157   
     axis -90 45 5.37419e-014   XYZ
    dof rx rz
    limits (-45.0 45.0)
           (-45.0 45.0)
  end
  begin
     id 24 
     name rclavicle
     direction -0.890334 0.455305 -0.00132111   
     length 3.51494  
     axis 0 0 0   XYZ 
    dof ry rz
    limits (-10.0 20.0)
           (-20.0 0.0)
  end
  begin
     id 25 
     name rhumerus
     direction -1 -4.48967e-011 5.07175e-028  
     length 5.34194   
     axis 180 30 90   XYZ
    dof rx ry rz
    limits (-90.0 60.0)
           (-90.0 90.0)
           (-90.0 90.0)
  end
  begin
     id 26 
     name rradius
     direction -1 -4.48955e-011 3.30467e-027   
     length 3.19351   
     axis 180 30 90   XYZ
    dof rx
    limits (-10.0 170.0)
  end
  begin
     id 27 
     name rwrist
     direction -1 -4.48968e-011 9.00208e-027   
     length 1.59676   
     axis -6.29373e-015 -90 -90   XYZ
    dof ry
    limits (-180.0 0.0)
  end
  begin
     id 28
     name rhand
     direction -1 -4.49e-011 1.80099e-026   
     length 0.743862   
     axis -1.14882e-014 -90 -90   XYZ
    dof rx rz
    limits (-90.0 90.0)
           (-45.0 45.0)
  end
  begin
     id 29
     name rfingers
     direction -1 -4.49009e-011 3.6023e-026   
     length 0.599721   
     axis -2.29769e-014 -90 -90   XYZ
    dof rx
    limits (0.0 90.0)
  end
  begin
     id 30
     name rthumb
     direction -0.707107 -6.35025e-011 0.707107   
     length 0.861083   
     axis -90 -45 -5.37419e-014   XYZ
    dof rx rz
    limits (-45.0 45.0)
           (-45.0 45.0)
  end
:hierarchy
  begin
    root lhipjoint rhipjoint lowerback
    lhipjoint lfemur
    lfemur ltibia
    ltibia lfoot
    lfoot ltoes
    rhipjoint rfemur
    rfemur rtibia
    rtibia rfoot
    rfoot rtoes
    lowerback upperback
    upperback thorax
    thorax lowerneck lclavicle rclavicle
    lowerneck upperneck
    upperneck head
    lclavicle lhumerus
    lhumerus lradius
    lradius lwrist
    lwrist lhand lthumb
    lhand lfingers
    rclavicle rhumerus
    rhumerus rradius
    rradius rwrist
    rwrist rhand rthumb
    rhand rfingers
  end

#!OML:ASF H:\Martial Arts Walks\Project 1\Capture day 1\Session 1\male.ASF
:FULLY-SPECIFIED
:DEGREES
605
root 0.123105 13.2591 2.21024 14.3516 -27.4549 -17.4531
lowerback 10.1454 1.11882 7.676
upperback -2.04263 2.84896 5.25173
thorax -7.8097 1.14791 0.802477
lowerneck -3.69838 6.89295 1.82618
upperneck 4.19915 9.06353 0.726963
head 1.98853 4.56319 0.183121
rclavicle 2.23509e-014 -1.3418e-014
rhumerus -77.4604 20.4555 -96.569
rradius 109.461
rwrist -60.4765
rhand 1.01071 -20.9219
rfingers 7.12502
rthumb 26.5581 -49.0799
lclavicle 2.23509e-014 -1.3418e-014
lhumerus 55.1557 13.7235 83.2551
lradius 16.9459
lwrist -62.393
lhand -25.0875 35.8809
lfingers 7.12502
lthumb 1.42708 65.8558
rfemur 14.2324 -6.81962 11.1563
rtibia 31.5939
rfoot -23.2673 -29.4047
rtoes -31.8106
lfemur -75.5421 33.99 -7.75974
ltibia 81.0121
lfoot -7.77114 -7.46123
ltoes 4.26494
606
root 0.123133 13.2489 2.22902 14.4143 -27.3783 -17.4959
lowerback 10.0718 1.09257 7.77539
upperback -2.04404 2.81834 5.26348
thorax -7.76658 1.12979 0.766542
lowerneck -3.71068 6.89385 1.84662
upperneck 4.2586 9.06448 0.694206
head 2.01295 4.56342 0.171926
rclavicle -6.76986e-014 -1.5207e-014
rhumerus -77.4553 20.4619 -96.5805
rradius 109.466
rwrist -60.433
rhand 1.00138 -20.8702
rfingers 7.12502
rthumb 26.5492 -49.0296
lclavicle -6.76986e-014 -1.5207e-014
lhumerus 54.985 13.611 82.9503
lradius 17.0257
lwrist -62.3477
lhand -25.0904 35.9104
lfingers 7.12502
lthumb 1.42428 65.8854
rfemur 14.3527 -6.81993 11.1942
rtibia 31.4279
rfoot -23.2028 -29.4386
rtoes -31.8167
lfemur -75.7163 34.0128 -7.80448
ltibia 81.2093
lfoot -7.89403 -7.4871
ltoes 4.26872
607
root 0.123234 13.2393 2.24733 14.4782 -27.2929 -17.5436
lowerback 10.0063 1.06409 7.86884
upperback -2.04741 2.78541 5.2811
thorax -7.73107 1.11073 0.740352
lowerneck -3.72603 6.8961 1.87375
upperneck 4.32273 9.06688 0.659673
head 2.03992 4.56443 0.159401
rclavicle -1.33434e-014 -1.69961e-014
rhumerus -77.4504 20.476 -96.5856
rradius 109.475
rwrist -60.3563
rhand 0.999144 -20.7993
rfingers 7.12502
rthumb 26.547 -48.959
lclavicle -1.33434e-014 -1.69961e-014
lhumerus 54.8131 13.4947 82.641
lradius 17.1001
lwrist -62.2983
lhand -25.0678 35.9172
lfingers 7.12502
lthumb 1.44611 65.892
rfemur 14.4627 -6.84597 11.2298
rtibia 31.2804
rfoot -23.1732 -29.4304
rtoes -31.801
lfemur -75.8883 34.0249 -7.84168
ltibia 81.3987
lfoot -8.01129 -7.51429
ltoes 4.26777
608
root 0.123281 13.2302 2.26495 14.5417 -27.2083 -17.5936
lowerback 9.9529 1.03739 7.94774
upperback -2.05328 2.75496 5.30337
thorax -7.70607 1.09333 0.726528
lowerneck -3.73912 6.89662 1.90358
upperneck 4.38384 9.06666 0.629729
head 2.06541 4.56428 0.147582
rclavicle -2.29845e-014 -1.12313e-014
rhumerus -77.4465 20.4974 -96.5852
rradius 109.485
rwrist -60.2724
rhand 1.01257 -20.7202
rfingers 7.12502
rthumb 26.5599 -48.878
lclavicle -2.29845e-014 -1.12313e-014
lhumerus 54.6692 13.4182 82.4245
lradius 17.1514
lwrist -62.3074
lhand -25.0331 35.8846
lfingers 7.12502
lthumb 1.47961 65.8592
rfemur 14.5617 -6.88398 11.2628
rtibia 31.1496
rfoot -23.1701 -29.3983
rtoes -31.768
lfemur -76.0547 34.037 -7.87509
ltibia 81.5791
lfoot -8.12539 -7.54327
ltoes 4.24974
609
root 0.123149 13.2218 2.28172 14.5996 -27.1337 -17.6357
lowerback 9.91182 1.01642 8.00056
upperback -2.06006 2.73051 5.32599
thorax -7.69002 1.07982 0.726257
lowerneck -3.74511 6.89482 1.92698
upperneck 4.43173 9.06314 0.616154
head 2.08411 4.56273 0.14106
rclavicle -5.00813e-014 2.01766e-014
rhumerus -77.4413 20.5212 -96.5797
rradius 109.492
rwrist -60.1976
rhand 1.03589 -20.6434
rfingers 7.12502
rthumb 26.5822 -48.7978
lclavicle -5.00813e-014 2.01766e-014
lhumerus 54.5648 13.3786 82.3029
lradius 17.1601
lwrist -62.3564
lhand -24.9984 35.8321
lfingers 7.12502
lthumb 1.51307 65.8065
rfemur 14.6514 -6.919 11.287
rtibia 31.0315
rfoot -23.1843 -29.3592
rtoes -31.7228
lfemur -76.2114 34.0562 -7.91525
ltibia 81.7494
lfoot -8.23588 -7.57501
ltoes 4.2407
610
root 0.122776 13.2139 2.29766 14.6492 -27.0743 -17.6613
lowerback 9.87836 1.00496 8.02376
upperback -2.06646 2.71565 5.3432
thorax -7.67837 1.07214 0.734867
lowerneck -3.74227 6.88652 1.9419
upperneck 4.45917 9.05075 0.621796
head 2.09302 4.55704 0.140612
rclavicle -4.08378e-014 -6.65929e-014
rhumerus -77.4285 20.5335 -96.5686
rradius 109.493
rwrist -60.1432
rhand 1.06241 -20.5883
rfingers 7.12502
rthumb 26.6076 -48.7389
lclavicle -4.08378e-014 -6.65929e-014
lhumerus 54.4986 13.3621 82.2612
lradius 17.1314
lwrist -62.4302
lhand -24.9702 35.7791
lfingers 7.12502
lthumb 1.54033 65.7533
rfemur 14.7343 -6.93875 11.2983
rtibia 30.9199
rfoot -23.2093 -29.3289
rtoes -31.6714
lfemur -76.3589 34.0858 -7.9723
ltibia 81.9104
lfoot -8.34182 -7.60693
ltoes 4.24375
611
root 0.122211 13.2064 2.31293 14.6858 -27.0374 -17.666
lowerback 9.85376 1.00489 8.01619
upperback -2.0716 2.71269 5.35242
thorax -7.67067 1.07145 0.749837
lowerneck -3.73234 6.87018 1.94558
upperneck 4.47052 9.02764 0.645035
head 2.0938 4.54621 0.146312
rclavicle 3.49488e-014 -4.26393e-014
rhumerus -77.4084 20.5294 -96.5548
rradius 109.484
rwrist -60.1073
rhand 1.07636 -20.5724
rfingers 7.12502
rthumb 26.6209 -48.7209
lclavicle 3.49488e-014 -4.26393e-014
lhumerus 54.4839 13.3982 82.3571
lradius 17.0678
lwrist -62.601
lhand -24.9478 35.7236
lfingers 7.12502
lthumb 1.56201 65.6976
rfemur 14.8143 -6.93506 11.2919
rtibia 30.8114
rfoot -23.228 -29.3238
rtoes -31.6226
lfemur -76.4913 34.1305 -8.0486
ltibia 82.0642
lfoot -8.44374 -7.63781
ltoes 4.2657
